#Comment line ignore any data following # character 
#Hierarchical Translation and Rotation (.htr) file 
[Header]	
#Header keywords are followed by a single value 
FileType HTR		#Single word string
DataType HTRS		#Translation followed by rotation and scale data
FileVersion 1		#integer
NumSegments 64		#integer
NumFrames 3		#integer
DataFrameRate 30		#integer, data frame rate in this file
EulerRotationOrder ZYX
CalibrationUnits mm
RotationUnits Degrees
GlobalAxisofGravity Y
BoneLengthAxis Y
ScaleFactor 1.00
[SegmentNames&Hierarchy]
#CHILD	PARENT
Pinger_Root GLOBAL
Pelvis Pinger_Root
L_Hip Pelvis
R_Hip Pelvis
Rear_Leg01 Pelvis
Spine1 Pelvis
L_Leg01 L_Hip
L_Leg02 L_Leg01
L_Leg03 L_Leg02
L_Foot L_Leg03
L_Toe1_01 L_Foot
L_Toe2_01 L_Foot
L_Toe3_01 L_Foot
planeAlignerLeft L_Foot
L_Toe1_02 L_Toe1_01
L_Toe1_03 L_Toe1_02
L_Toe2_02 L_Toe2_01
L_Toe2_03 L_Toe2_02
L_Toe3_02 L_Toe3_01
L_Toe3_03 L_Toe3_02
planeLockWeightLeft planeAlignerLeft
R_Leg01 R_Hip
R_Leg02 R_Leg01
R_Leg03 R_Leg02
R_Foot R_Leg03
planeAlignerRight R_Foot
R_Toe1_01 R_Foot
R_Toe2_01 R_Foot
R_Toe3_01 R_Foot
planeLockWeightRight planeAlignerRight
R_Toe1_02 R_Toe1_01
R_Toe1_03 R_Toe1_02
R_Toe2_02 R_Toe2_01
R_Toe2_03 R_Toe2_02
R_Toe3_02 R_Toe3_01
R_Toe3_03 R_Toe3_02
Rear_Leg02 Rear_Leg01
Rear_Leg03 Rear_Leg02
Rear_Leg04 Rear_Leg03
Rear_Foot Rear_Leg04
planeAlignerCenter Rear_Foot
Rear_Toe1_01 Rear_Foot
Rear_Toe2_01 Rear_Foot
Rear_Toe3_01 Rear_Foot
planeLockWeightCenter planeAlignerCenter
Rear_Toe1_02 Rear_Toe1_01
Rear_Toe1_03 Rear_Toe1_02
Rear_Toe2_02 Rear_Toe2_01
Rear_Toe2_03 Rear_Toe2_02
Rear_Toe3_02 Rear_Toe3_01
Rear_Toe3_03 Rear_Toe3_02
Back_Bone Spine1
Head Spine1
Motor_Bone Back_Bone
Ping_Mechanism Back_Bone
BN_LookIK Head
bottomMouth Head
L_Mouth01 Head
L_mouthFront Head
mouthGun Head
R_Mouth01 Head
R_mouthFront Head
TopMouth Head
weapon_bone Head
[BasePosition]
#SegmentName Tx, Ty, Tz, Rx, Ry, Rz, BoneLength
Pinger_Root 0.000000 0.000000 0.000000 -90.000000 0.000000 0.000000 10.000000 
Pelvis 0.000000 0.000000 0.000000 0.000000 0.000000 0.000000 10.000000 
L_Hip 0.000000 0.000000 0.000000 0.000000 0.000000 0.000000 10.000000 
R_Hip 0.000000 0.000000 0.000000 0.000000 0.000000 0.000000 10.000000 
Rear_Leg01 0.000000 0.000000 0.000000 0.000000 0.000000 0.000000 10.000000 
Spine1 0.000000 0.000000 0.000000 0.000000 0.000000 0.000000 10.000000 
L_Leg01 0.000000 0.000000 0.000000 0.000000 0.000000 0.000000 10.000000 
L_Leg02 0.000000 0.000000 0.000000 0.000000 0.000000 0.000000 10.000000 
L_Leg03 0.000000 0.000000 0.000000 0.000000 0.000000 0.000000 10.000000 
L_Foot 0.000000 0.000000 0.000000 0.000000 0.000000 0.000000 10.000000 
L_Toe1_01 0.000000 0.000000 0.000000 0.000000 0.000000 0.000000 10.000000 
L_Toe2_01 0.000000 0.000000 0.000000 0.000000 0.000000 0.000000 10.000000 
L_Toe3_01 0.000000 0.000000 0.000000 0.000000 0.000000 0.000000 10.000000 
planeAlignerLeft 0.000000 0.000000 0.000000 0.000000 0.000000 0.000000 10.000000 
L_Toe1_02 0.000000 0.000000 0.000000 0.000000 0.000000 0.000000 10.000000 
L_Toe1_03 0.000000 0.000000 0.000000 0.000000 0.000000 0.000000 10.000000 
L_Toe2_02 0.000000 0.000000 0.000000 0.000000 0.000000 0.000000 10.000000 
L_Toe2_03 0.000000 0.000000 0.000000 0.000000 0.000000 0.000000 10.000000 
L_Toe3_02 0.000000 0.000000 0.000000 0.000000 0.000000 0.000000 10.000000 
L_Toe3_03 0.000000 0.000000 0.000000 0.000000 0.000000 0.000000 10.000000 
planeLockWeightLeft 0.000000 0.000000 0.000000 0.000000 0.000000 0.000000 10.000000 
R_Leg01 0.000000 0.000000 0.000000 0.000000 0.000000 0.000000 10.000000 
R_Leg02 0.000000 0.000000 0.000000 0.000000 0.000000 0.000000 10.000000 
R_Leg03 0.000000 0.000000 0.000000 0.000000 0.000000 0.000000 10.000000 
R_Foot 0.000000 0.000000 0.000000 0.000000 0.000000 0.000000 10.000000 
planeAlignerRight 0.000000 0.000000 0.000000 0.000000 0.000000 0.000000 10.000000 
R_Toe1_01 0.000000 0.000000 0.000000 0.000000 0.000000 0.000000 10.000000 
R_Toe2_01 0.000000 0.000000 0.000000 0.000000 0.000000 0.000000 10.000000 
R_Toe3_01 0.000000 0.000000 0.000000 0.000000 0.000000 0.000000 10.000000 
planeLockWeightRight 0.000000 0.000000 0.000000 0.000000 0.000000 0.000000 10.000000 
R_Toe1_02 0.000000 0.000000 0.000000 0.000000 0.000000 0.000000 10.000000 
R_Toe1_03 0.000000 0.000000 0.000000 0.000000 0.000000 0.000000 10.000000 
R_Toe2_02 0.000000 0.000000 0.000000 0.000000 0.000000 0.000000 10.000000 
R_Toe2_03 0.000000 0.000000 0.000000 0.000000 0.000000 0.000000 10.000000 
R_Toe3_02 0.000000 0.000000 0.000000 0.000000 0.000000 0.000000 10.000000 
R_Toe3_03 0.000000 0.000000 0.000000 0.000000 0.000000 0.000000 10.000000 
Rear_Leg02 0.000000 0.000000 0.000000 0.000000 0.000000 0.000000 10.000000 
Rear_Leg03 0.000000 0.000000 0.000000 0.000000 0.000000 0.000000 10.000000 
Rear_Leg04 0.000000 0.000000 0.000000 0.000000 0.000000 0.000000 10.000000 
Rear_Foot 0.000000 0.000000 0.000000 0.000000 0.000000 0.000000 10.000000 
planeAlignerCenter 0.000000 0.000000 0.000000 0.000000 0.000000 0.000000 10.000000 
Rear_Toe1_01 0.000000 0.000000 0.000000 0.000000 0.000000 0.000000 10.000000 
Rear_Toe2_01 0.000000 0.000000 0.000000 0.000000 0.000000 0.000000 10.000000 
Rear_Toe3_01 0.000000 0.000000 0.000000 0.000000 0.000000 0.000000 10.000000 
planeLockWeightCenter 0.000000 0.000000 0.000000 0.000000 0.000000 0.000000 10.000000 
Rear_Toe1_02 0.000000 0.000000 0.000000 0.000000 0.000000 0.000000 10.000000 
Rear_Toe1_03 0.000000 0.000000 0.000000 0.000000 0.000000 0.000000 10.000000 
Rear_Toe2_02 0.000000 0.000000 0.000000 0.000000 0.000000 0.000000 10.000000 
Rear_Toe2_03 0.000000 0.000000 0.000000 0.000000 0.000000 0.000000 10.000000 
Rear_Toe3_02 0.000000 0.000000 0.000000 0.000000 0.000000 0.000000 10.000000 
Rear_Toe3_03 0.000000 0.000000 0.000000 0.000000 0.000000 0.000000 10.000000 
Back_Bone 0.000000 0.000000 0.000000 0.000000 0.000000 0.000000 10.000000 
Head 0.000000 0.000000 0.000000 0.000000 0.000000 0.000000 10.000000 
Motor_Bone 0.000000 0.000000 0.000000 0.000000 0.000000 0.000000 10.000000 
Ping_Mechanism 0.000000 0.000000 0.000000 0.000000 0.000000 0.000000 10.000000 
BN_LookIK 0.000000 0.000000 0.000000 0.000000 0.000000 0.000000 10.000000 
bottomMouth 0.000000 0.000000 0.000000 0.000000 0.000000 0.000000 10.000000 
L_Mouth01 0.000000 0.000000 0.000000 0.000000 0.000000 0.000000 10.000000 
L_mouthFront 0.000000 0.000000 0.000000 0.000000 0.000000 0.000000 10.000000 
mouthGun 0.000000 0.000000 0.000000 0.000000 0.000000 0.000000 10.000000 
R_Mouth01 0.000000 0.000000 0.000000 0.000000 0.000000 0.000000 10.000000 
R_mouthFront 0.000000 0.000000 0.000000 0.000000 0.000000 0.000000 10.000000 
TopMouth 0.000000 0.000000 0.000000 0.000000 0.000000 0.000000 10.000000 
weapon_bone 0.000000 0.000000 0.000000 0.000000 0.000000 0.000000 10.000000 
#Beginning of Data. Separated by tabs
#Fr	Tx	Ty	Tz	Rx	Ry	Rz	SF
[Pinger_Root]
47 0.000000 0.000000 0.000000 -0.000056 -0.000050 -83.076927 0.000000
48 0.000000 0.000000 0.000000 -0.000037 -0.000034 -85.384315 0.000000
49 0.000000 0.000000 0.000000 -0.000018 -0.000017 -87.692612 0.000000
[Pelvis]
47 -20.983915 287.632263 4444.313965 -114.768394 -85.132202 101.002151 4453.661133
48 -19.732038 341.468018 4439.392090 -110.637199 -85.447105 99.079597 4452.548828
49 -18.175352 410.053711 4434.469727 -105.752480 -85.719978 96.413322 4453.425293
[L_Hip]
47 5.766392 125.831482 872.656799 160.158691 -45.484894 122.312202 881.701050
48 5.766392 125.831482 872.656799 160.158691 -45.484909 122.312202 881.701050
49 5.766392 125.831482 872.656799 160.158691 -45.484913 122.312202 881.701050
[R_Hip]
47 5.765438 125.836372 -872.654907 38.087841 49.812687 125.703735 881.699829
48 5.765438 125.836372 -872.654907 38.087841 49.812687 125.703735 881.699829
49 5.765438 125.836372 -872.654907 38.087841 49.812687 125.703735 881.699829
[Rear_Leg01]
47 -192.298416 -925.602966 -0.001907 166.076157 -0.076763 -166.899933 945.367432
48 -192.298416 -925.602966 -0.001907 167.802170 1.024647 -165.946136 945.367432
49 -192.298416 -925.602966 -0.001907 169.547180 2.096667 -164.959091 945.367432
[Spine1]
47 290.604584 5.007505 0.000477 6.410458 0.699804 19.336899 290.647736
48 290.604584 5.007505 0.000477 6.286462 0.292973 19.397606 290.647736
49 290.604584 5.007505 0.000477 6.201685 -0.118141 19.462349 290.647736
[L_Leg01]
47 761.932007 -0.002384 -0.069261 15.866225 -21.850582 3.772109 761.932068
48 761.932007 -0.002384 -0.069261 14.140221 -20.367195 -0.298089 761.932068
49 761.932007 -0.002384 -0.069261 17.489658 -20.108143 -3.625636 761.932068
[L_Leg02]
47 1441.140503 -0.000954 -0.000715 2.005496 -0.270692 -129.736542 1441.140503
48 1441.140503 -0.000954 -0.000715 1.053428 -0.165125 -123.353722 1441.140503
49 1441.140503 -0.000954 -0.000715 1.649831 -0.176556 -124.520920 1441.140503
[L_Leg03]
47 1686.963989 -0.000715 -0.000954 -0.011396 0.002371 113.503693 1686.963989
48 1686.963989 -0.000715 -0.000954 -0.004568 0.000850 111.073792 1686.963989
49 1686.963989 -0.000715 -0.000954 -0.016141 0.005279 114.395660 1686.963989
[L_Foot]
47 3041.570068 -30.715107 11.297464 0.134598 7.771822 50.934116 3041.746094
48 3041.570068 -30.715107 11.297464 6.741083 10.064815 49.099400 3041.746094
49 3041.570068 -30.715107 11.297464 5.459573 12.032373 49.316261 3041.746094
[L_Toe1_01]
47 -188.216690 -224.732346 -21.137953 88.145683 -13.248359 -173.569183 293.899567
48 -188.216690 -224.732346 -21.137953 93.719055 -6.862556 -171.970459 293.899567
49 -188.216690 -224.732346 -21.137953 93.724312 -7.967192 -170.850418 293.899567
[L_Toe2_01]
47 200.746536 -219.926590 148.838394 -88.100586 -16.124132 -63.881721 332.896027
48 200.746536 -219.926590 148.838394 -90.023972 -26.311634 -52.677727 332.896027
49 200.746536 -219.926590 148.838394 -88.795532 -26.365078 -55.477386 332.896027
[L_Toe3_01]
47 188.832520 -219.859131 -191.078659 -102.059586 16.295452 -77.864922 347.140900
48 188.832520 -219.859131 -191.078659 -99.788078 13.839033 -67.673111 347.140900
49 188.832520 -219.859131 -191.078659 -99.601067 11.746389 -69.711807 347.140900
[planeAlignerLeft]
47 59.597015 -735.411316 77.066208 -160.588150 -80.966171 58.565102 741.836060
48 33.185322 -593.098206 100.920769 169.306824 -76.298309 89.968338 602.537781
49 53.400345 -631.989990 123.791168 169.306686 -76.298271 89.968506 646.209900
[L_Toe1_02]
47 413.761139 0.000477 0.000000 0.001409 -22.814804 0.001409 413.761139
48 413.761139 0.000477 0.000000 0.001384 -26.012909 0.001384 413.761139
49 413.761139 0.000477 0.000000 0.001384 -26.012932 0.001384 413.761139
[L_Toe1_03]
47 464.317322 0.000358 -0.000089 0.012675 79.374954 0.012676 464.317322
48 464.317322 0.000358 -0.000089 0.003734 53.359299 0.003734 464.317322
49 464.317322 0.000358 -0.000089 0.004043 56.250343 0.004043 464.317322
[L_Toe2_02]
47 342.235809 -0.000477 0.000238 0.001189 -71.503639 0.001189 342.235809
48 342.235809 -0.000477 0.000238 0.001188 -72.401978 0.001188 342.235809
49 342.235809 -0.000477 0.000238 0.001195 -68.419128 0.001195 342.235809
[L_Toe2_03]
47 420.210846 -0.000715 0.000000 0.019621 83.141502 0.019621 420.210846
48 420.210846 -0.000715 0.000000 0.029090 85.375473 0.029090 420.210846
49 420.210846 -0.000715 0.000000 0.009741 76.159943 0.009741 420.210846
[L_Toe3_02]
47 329.270111 0.000954 0.000000 0.001177 -81.468735 0.001177 329.270111
48 329.270111 0.000954 0.000000 0.001178 -80.480331 0.001178 329.270111
49 329.270111 0.000954 0.000000 0.001179 -78.761299 0.001179 329.270111
[L_Toe3_03]
47 439.137451 -0.001907 0.000954 -179.997528 74.417198 -179.994003 439.137451
48 439.137451 -0.001907 0.000954 -179.995956 78.605698 -179.992447 439.137451
49 439.137451 -0.001907 0.000954 -179.989151 84.771416 -179.985657 439.137451
[planeLockWeightLeft]
47 999.998657 0.097961 0.076208 -0.011826 -0.004376 0.005620 999.998596
48 999.999878 0.097961 0.076186 -0.011826 -0.004376 0.005620 999.999878
49 999.999878 0.097961 0.076164 -0.011826 -0.004376 0.005620 999.999878
[R_Leg01]
47 761.455627 -0.001907 -0.000358 122.498581 -9.703648 36.317089 761.455688
48 761.455627 -0.001907 -0.000358 122.031029 -9.395206 35.717243 761.455688
49 761.455627 -0.001907 -0.000358 121.560623 -9.091608 35.115360 761.455688
[R_Leg02]
47 1441.140625 0.000000 -0.000238 -0.596413 0.045525 -98.979691 1441.140625
48 1441.140625 0.000000 -0.000238 -0.697831 0.018491 -101.543793 1441.140625
49 1441.140625 0.000000 -0.000238 -0.807845 -0.011485 -104.471237 1441.140625
[R_Leg03]
47 1686.963989 0.000954 0.001431 0.052462 -0.027520 124.960632 1686.963989
48 1686.963989 0.000954 0.001431 0.055536 -0.029070 125.992332 1686.963989
49 1686.963989 0.000954 0.001431 0.061876 -0.031850 127.132866 1686.963989
[R_Foot]
47 3041.560059 -30.531288 -11.204481 -0.578227 -24.062565 41.227806 3041.734131
48 3041.560059 -30.531288 -11.204481 -0.433030 -24.130518 42.523575 3041.734131
49 3041.560059 -30.531288 -11.204481 -0.289473 -24.201437 43.819832 3041.734131
[planeAlignerRight]
47 -126.646561 -567.262634 -312.457001 -36.577137 -71.339012 -64.343925 659.890625
48 -126.648857 -572.586670 -312.457367 -36.577137 -71.339012 -64.343925 664.473450
49 -126.651642 -572.771301 -312.455933 -36.577137 -71.339035 -64.343971 664.632507
[R_Toe1_01]
47 -188.383347 -224.864899 21.052242 76.780144 -0.442346 -173.274673 294.101532
48 -188.383347 -224.864899 21.052242 76.771431 -0.427735 -173.010590 294.101532
49 -188.383347 -224.864899 21.052242 76.762787 -0.413083 -172.746506 294.101532
[R_Toe2_01]
47 200.637817 -220.002121 -148.787384 -91.540688 33.075634 -58.704712 332.857574
48 200.637817 -220.002121 -148.787384 -91.639305 32.977654 -58.936993 332.857574
49 200.637817 -220.002121 -148.787384 -91.737335 32.879341 -59.168823 332.857574
[R_Toe3_01]
47 188.606735 -220.092957 191.126343 -73.222961 -8.600696 -73.255142 347.192566
48 188.606735 -220.092957 191.126343 -73.225410 -8.527993 -73.498726 347.192566
49 188.606735 -220.092957 191.126343 -73.228157 -8.455307 -73.742249 347.192566
[planeLockWeightRight]
47 999.999329 -0.000087 0.075900 -0.011823 -0.004379 -0.000027 999.999329
48 999.999329 -0.000078 0.075902 -0.011823 -0.004379 -0.000027 999.999329
49 999.999268 -0.000070 0.075905 -0.011823 -0.004379 -0.000027 999.999268
[R_Toe1_02]
47 413.762085 0.000477 -0.000119 0.001396 -24.433432 0.001396 413.762085
48 413.762085 0.000477 -0.000119 0.001396 -24.471106 0.001396 413.762085
49 413.762085 0.000477 -0.000119 0.001395 -24.508780 0.001395 413.762085
[R_Toe1_03]
47 464.317810 0.000000 0.001088 0.006746 69.963364 0.006746 464.317810
48 464.317810 0.000000 0.001088 0.006687 69.784378 0.006687 464.317810
49 464.317810 0.000000 0.001088 0.006629 69.605415 0.006629 464.317810
[R_Toe2_02]
47 342.234741 -0.000954 0.000238 0.001196 -67.679428 0.001196 342.234741
48 342.234741 -0.000954 0.000238 0.001197 -67.453308 0.001197 342.234741
49 342.234741 -0.000954 0.000238 0.001197 -67.227203 0.001197 342.234741
[R_Toe2_03]
47 420.210846 0.000715 -0.000268 0.008637 74.381111 0.008637 420.210846
48 420.210846 0.000715 -0.000268 0.008325 73.791313 0.008325 420.210846
49 420.210846 0.000715 -0.000268 0.008315 73.771416 0.008315 420.210846
[R_Toe3_02]
47 329.270355 -0.000477 -0.000954 0.001184 -75.008659 0.001184 329.270355
48 329.270355 -0.000477 -0.000954 0.001184 -74.769852 0.001184 329.270355
49 329.270355 -0.000477 -0.000954 0.001184 -74.531036 0.001184 329.270355
[R_Toe3_03]
47 439.137939 0.000238 0.001431 -0.012938 84.110275 -0.009437 439.137939
48 439.137939 0.000238 0.001431 -0.012247 83.721840 -0.008745 439.137939
49 439.137939 0.000238 0.001431 -0.011636 83.333405 -0.008133 439.137939
[Rear_Leg02]
47 1162.777710 -0.029802 0.005960 1.654458 -3.011473 -141.023193 1162.777710
48 1162.777710 -0.029802 0.005960 1.528180 -2.792886 -140.814941 1162.777710
49 1162.777710 -0.029802 0.005960 1.421546 -2.678158 -139.960403 1162.777710
[Rear_Leg03]
47 607.192505 -0.013351 -0.073195 0.010402 -0.005288 70.251274 607.192505
48 607.192505 -0.013351 -0.073195 0.010407 -0.005276 70.124321 607.192505
49 607.192505 -0.013351 -0.073195 0.010413 -0.005265 69.997383 607.192505
[Rear_Leg04]
47 995.874512 -0.020504 -0.011921 -0.040810 -0.017422 71.127396 995.874573
48 995.874512 -0.020504 -0.011921 -0.040788 -0.017475 70.978424 995.874573
49 995.874512 -0.020504 -0.011921 -0.040693 -0.017694 70.360069 995.874573
[Rear_Foot]
47 3096.176270 -0.067472 -0.041425 -72.490463 86.799179 112.455276 3096.176270
48 3096.176270 -0.067472 -0.041425 -91.830894 87.122612 93.977303 3096.176270
49 3096.176270 -0.067472 -0.041425 -113.088562 87.082680 73.581436 3096.176270
[planeAlignerCenter]
47 -46.527424 -15.026549 -723.020203 12.496931 -3.818830 176.164658 724.671509
48 -27.408440 -15.057220 -745.608093 12.351337 -2.237524 177.758041 746.263611
49 -8.289482 -15.087891 -768.195984 12.249873 -0.652794 179.346283 768.388855
[Rear_Toe1_01]
47 0.653352 83.966492 -371.173737 5.716806 38.183025 90.593765 380.553192
48 0.653352 83.966492 -371.173737 3.514663 39.734062 90.588051 380.553192
49 0.653352 83.966492 -371.173737 1.260799 41.283752 90.502884 380.553192
[Rear_Toe2_01]
47 178.200760 -294.826019 -362.060547 -12.335357 33.409630 -75.068962 499.765686
48 178.200760 -294.826019 -362.060547 -10.224772 33.921703 -71.441414 499.765686
49 178.200760 -294.826019 -362.060547 -8.067832 34.320965 -67.773941 499.765686
[Rear_Toe3_01]
47 -153.359680 -308.780914 -362.060852 -0.665329 28.327686 -120.544357 499.952881
48 -153.359680 -308.780914 -362.060852 0.922563 30.701427 -117.187553 499.952881
49 -153.359680 -308.780914 -362.060852 2.537316 32.701141 -113.982742 499.952881
[planeLockWeightCenter]
47 1000.000122 0.000610 0.076177 -0.011814 -0.004373 -0.000015 1000.000122
48 1000.000122 0.000610 0.076184 -0.011814 -0.004373 -0.000015 1000.000122
49 1000.000122 0.000610 0.076191 -0.011814 -0.004373 -0.000015 1000.000122
[Rear_Toe1_02]
47 379.707825 0.194073 0.000477 0.000922 -32.789253 0.002748 379.707855
48 379.707825 0.194073 0.000477 0.000522 -32.418427 0.004152 379.707855
49 379.707825 0.194073 0.000477 0.000134 -32.047592 0.005547 379.707855
[Rear_Toe1_03]
47 500.129700 0.165701 0.000119 -0.004058 60.390636 -0.000441 500.129761
48 500.129700 0.165701 0.000119 -0.001685 56.916405 0.003789 500.129761
49 500.129700 0.165701 0.000119 0.000059 53.442188 0.007424 500.129761
[Rear_Toe2_02]
47 340.494507 0.000238 -0.000954 0.001189 -71.503654 0.001189 340.494507
48 340.494507 0.000238 -0.000954 0.001190 -70.953941 0.001190 340.494507
49 340.494507 0.000238 -0.000954 0.001191 -70.404266 0.001191 340.494507
[Rear_Toe2_03]
47 433.103577 0.000000 0.000238 0.007674 72.406113 0.007674 433.103546
48 433.103577 0.000000 0.000238 0.007256 71.383110 0.007256 433.103546
49 433.103577 0.000000 0.000238 0.006881 70.360023 0.006881 433.103546
[Rear_Toe3_02]
47 340.494141 -0.000358 -0.000477 0.008295 -67.292664 -0.009467 340.494171
48 340.494141 -0.000358 -0.000477 0.008374 -67.494644 -0.009546 340.494171
49 340.494141 -0.000358 -0.000477 0.008364 -67.470200 -0.009536 340.494171
[Rear_Toe3_03]
47 433.103577 0.001431 -0.000238 -0.000975 65.985809 -0.004550 433.103546
48 433.103577 0.001431 -0.000238 -0.001011 66.289467 -0.004584 433.103546
49 433.103577 0.001431 -0.000238 -0.001001 66.206871 -0.004575 433.103546
[Back_Bone]
47 1312.175781 -701.934692 0.000954 0.000023 -0.000007 -85.606667 1488.125488
48 1312.175781 -701.934692 0.000954 0.000023 -0.000007 -85.606667 1488.125488
49 1312.175781 -701.934692 0.000954 0.000023 -0.000007 -85.606667 1488.125488
[Head]
47 1406.159424 809.709290 0.001431 0.000008 0.000003 7.767519 1622.625488
48 1406.159424 809.709290 0.001431 0.000008 0.000003 7.767519 1622.625488
49 1406.159424 809.709290 0.001431 0.000008 0.000003 7.767519 1622.625488
[Motor_Bone]
47 1158.364380 -417.834747 0.000477 -0.094966 3.451782 -105.711754 1231.419434
48 1158.364380 -417.834747 0.000477 -0.095918 2.014710 -105.797951 1231.419434
49 1158.364380 -417.834747 0.000477 -0.094708 0.577647 -105.884048 1231.419434
[Ping_Mechanism]
47 1236.454102 -443.013367 -7.202703 0.000103 -0.000053 82.120995 1313.442627
48 1235.533203 -442.628021 -5.054161 0.000103 -0.000053 82.120995 1312.435669
49 1234.612427 -442.242645 -2.905626 0.000103 -0.000053 82.120995 1311.432373
[BN_LookIK]
47 193.241119 1380.371704 -0.002861 0.000000 89.965736 -31.038179 1393.832153
48 193.241119 1380.371704 -0.002861 0.000000 89.965736 -31.038179 1393.832153
49 193.241119 1380.371704 -0.002861 0.000000 89.965736 -31.038179 1393.832153
[bottomMouth]
47 -435.092926 615.759399 -0.000954 -0.000022 0.000016 73.527184 753.966492
48 -435.092926 615.759399 -0.000954 -0.000022 0.000016 73.527184 753.966492
49 -435.092926 615.759399 -0.000954 -0.000022 0.000016 73.527184 753.966492
[L_Mouth01]
47 554.440979 7.658243 838.222046 150.204178 23.759130 109.605339 1005.027161
48 554.440979 7.658243 838.222046 150.204178 23.759130 109.605339 1005.027161
49 554.440979 7.658243 838.222046 150.204178 23.759130 109.605339 1005.027161
[L_mouthFront]
47 551.629089 934.514771 339.150421 0.000081 2.804060 79.119301 1136.941284
48 551.629089 934.514771 339.150421 0.000081 2.804060 79.119301 1136.941284
49 551.629089 934.514771 339.150421 0.000081 2.804060 79.119301 1136.941284
[mouthGun]
47 55.332661 1627.420898 0.000000 0.000023 0.000009 -11.038128 1628.361328
48 55.332661 1627.420898 0.000000 0.000023 0.000009 -11.038128 1628.361328
49 55.332661 1627.420898 0.000000 0.000023 0.000009 -11.038128 1628.361328
[R_Mouth01]
47 554.442383 7.659197 -838.223938 29.795891 -23.759109 109.605331 1005.029541
48 554.442383 7.659197 -838.223938 29.795891 -23.759109 109.605331 1005.029541
49 554.442383 7.659197 -838.223938 29.795891 -23.759109 109.605331 1005.029541
[R_mouthFront]
47 551.629089 934.514282 -339.151367 0.000029 -2.803930 79.119133 1136.941162
48 551.629089 934.514282 -339.151367 0.000029 -2.803930 79.119133 1136.941162
49 551.629089 934.514282 -339.151367 0.000029 -2.803930 79.119133 1136.941162
[TopMouth]
47 461.269867 -56.106091 -0.008583 -0.000059 -0.000268 92.025169 464.669525
48 461.269867 -56.106091 -0.008583 -0.000059 -0.000268 92.025169 464.669525
49 461.269867 -56.106091 -0.008583 -0.000059 -0.000268 92.025169 464.669525
[weapon_bone]
47 -987.239868 1448.372803 0.001431 0.000000 89.965736 -31.038221 1752.833740
48 -987.239868 1448.372803 0.001431 0.000000 89.965736 -31.038221 1752.833740
49 -987.239868 1448.372803 0.001431 0.000000 89.965736 -31.038221 1752.833740
